<?xml version="1.0" standalone="no"?><!DOCTYPE svg PUBLIC "-//W3C//DTD SVG 1.1//EN" "http://www.w3.org/Graphics/SVG/1.1/DTD/svg11.dtd"><svg t="1618281706624" class="icon" viewBox="0 0 1024 1024" version="1.1" xmlns="http://www.w3.org/2000/svg" p-id="2598" xmlns:xlink="http://www.w3.org/1999/xlink" width="200" height="200"><defs><style type="text/css"></style></defs><path d="M1020.8 435.2l-192-384c-6.4-12.8-16-19.2-28.8-19.2h-128c-16 0-28.8 9.6-32 25.6-9.6 57.6-67.2 102.4-128 102.4s-115.2-44.8-128-102.4c-3.2-16-16-25.6-32-25.6H224c-12.8 0-22.4 6.4-28.8 19.2l-192 384c-3.2 6.4-3.2 16 0 22.4 3.2 9.6 9.6 16 16 19.2L192 563.2V896c0 54.4 41.6 96 96 96h448c54.4 0 96-41.6 96-96V563.2l172.8-86.4c16-9.6 22.4-28.8 16-41.6z m-195.2 60.8c-6.4-9.6-12.8-16-25.6-16-19.2 0-32 12.8-32 32v384c0 19.2-12.8 32-32 32H288c-19.2 0-32-12.8-32-32V512c0-19.2-12.8-32-32-32-12.8 0-19.2 6.4-25.6 16l-121.6-60.8L243.2 96h83.2c25.6 76.8 99.2 128 185.6 128 83.2 0 156.8-51.2 185.6-128h83.2l169.6 339.2-124.8 60.8z" p-id="2599"></path></svg>