<?xml version="1.0" standalone="no"?><!DOCTYPE svg PUBLIC "-//W3C//DTD SVG 1.1//EN" "http://www.w3.org/Graphics/SVG/1.1/DTD/svg11.dtd"><svg t="1618392806335" class="icon" viewBox="0 0 1024 1024" version="1.1" xmlns="http://www.w3.org/2000/svg" p-id="2190" xmlns:xlink="http://www.w3.org/1999/xlink" width="200" height="200"><defs><style type="text/css"></style></defs><path d="M1015.878075 737.575751a25.572909 25.572909 0 0 0 0-36.441395 26.212231 26.212231 0 0 0-36.441395 0l-266.597573 263.400959-159.191356-155.35542a24.294263 24.294263 0 0 0-33.884104 0 23.015618 23.015618 0 0 0 0 33.244781l177.731715 174.535102a23.654941 23.654941 0 0 0 17.261713 7.03255 26.212231 26.212231 0 0 0 19.179682-7.671872z m0 0" fill="" p-id="2191"></path><path d="M838.785683 745.886946a467.984229 467.984229 0 0 0-255.729087-177.092393A301.760323 301.760323 0 0 0 457.11002 1.07598a301.760323 301.760323 0 0 0-150.240838 575.390446A463.50897 463.50897 0 0 0 0.6336 924.897307a32.605459 32.605459 0 0 0 31.966136 38.998686 21.736972 21.736972 0 0 0 21.736972-17.901036 409.805862 409.805862 0 0 1 734.581803-166.223907 29.408845 29.408845 0 0 0 30.048167 11.507809 28.769522 28.769522 0 0 0 19.819005-45.391913zM500.583965 547.057581a242.942633 242.942633 0 0 1-56.899722 7.671872A278.105382 278.105382 0 0 1 384.22723 550.893517a255.729087 255.729087 0 0 1-145.126256-86.947889A251.893151 251.893151 0 0 1 456.470698 52.221798a251.893151 251.893151 0 0 1 225.041596 319.661358A250.614505 250.614505 0 0 1 639.956317 448.601882a255.729087 255.729087 0 0 1-139.372352 98.455699z" fill="" p-id="2192"></path></svg>