<?xml version="1.0" standalone="no"?><!DOCTYPE svg PUBLIC "-//W3C//DTD SVG 1.1//EN" "http://www.w3.org/Graphics/SVG/1.1/DTD/svg11.dtd"><svg t="1618393104106" class="icon" viewBox="0 0 1092 1024" version="1.1" xmlns="http://www.w3.org/2000/svg" p-id="3823" xmlns:xlink="http://www.w3.org/1999/xlink" width="213.28125" height="200"><defs><style type="text/css"></style></defs><path d="M1058.133333 0H34.133333C13.653333 0 0 13.653333 0 34.133333s13.653333 34.133333 34.133333 34.133334H68.266667v546.133333c0 75.093333 61.44 136.533333 136.533333 136.533333h204.8l-116.053333 204.8c-6.826667 13.653333-6.826667 34.133333 13.653333 47.786667 13.653333 6.826667 34.133333 6.826667 47.786667-13.653333l136.533333-238.933334h150.186667l136.533333 232.106667c6.826667 13.653333 27.306667 20.48 47.786667 13.653333 13.653333-6.826667 20.48-27.306667 13.653333-47.786666L709.973333 750.933333H887.466667c75.093333 0 136.533333-61.44 136.533333-136.533333V68.266667h34.133333c20.48 0 34.133333-13.653333 34.133334-34.133334s-13.653333-34.133333-34.133334-34.133333zM955.733333 614.4c0 40.96-27.306667 68.266667-68.266666 68.266667H204.8c-40.96 0-68.266667-27.306667-68.266667-68.266667V68.266667h819.2v546.133333z" p-id="3824"></path><path d="M279.893333 505.173333l122.88-122.88 170.666667 170.666667c13.653333 13.653333 34.133333 13.653333 47.786667 0l286.72-286.72c13.653333-13.653333 13.653333-34.133333 0-47.786667s-34.133333-13.653333-47.786667 0L593.92 484.693333 423.253333 314.026667c-13.653333-13.653333-34.133333-13.653333-47.786666 0L232.106667 457.386667c-13.653333 13.653333-13.653333 34.133333 0 47.786666 6.826667 13.653333 34.133333 13.653333 47.786666 0z" p-id="3825"></path></svg>