<?xml version="1.0" standalone="no"?><!DOCTYPE svg PUBLIC "-//W3C//DTD SVG 1.1//EN" "http://www.w3.org/Graphics/SVG/1.1/DTD/svg11.dtd"><svg t="1618392515435" class="icon" viewBox="0 0 1320 1024" version="1.1" xmlns="http://www.w3.org/2000/svg" p-id="9685" xmlns:xlink="http://www.w3.org/1999/xlink" width="257.8125" height="200"><defs><style type="text/css"></style></defs><path d="M1287.427466 683.987105h-79.556415a50.17666 50.17666 0 0 0-31.030303 10.893617l-17.1657 14.524823a10.563507 10.563507 0 0 1-7.262411 3.301096 10.893617 10.893617 0 0 1-7.592521-3.301096L719.969052 186.511928a35.321728 35.321728 0 0 0-42.254029-7.922631l-198.065764 109.59639a147.558994 147.558994 0 0 1-127.422309 6.602192A44.894907 44.894907 0 0 1 330.109607 236.688588a20.796905 20.796905 0 0 1 8.25274-14.854932l231.076725-175.618311a227.775629 227.775629 0 0 1 218.20245-31.030303l365.101225 140.296583a198.065764 198.065764 0 0 0 75.26499 14.854932H1287.427466a33.010961 33.010961 0 0 1 22.447453 8.912959 29.709865 29.709865 0 0 1 10.563508 22.117344v449.609284a33.010961 33.010961 0 0 1-33.010961 33.010961z m-957.317859-325.818182a208.299162 208.299162 0 0 0 174.297872-13.534494l165.054803-91.77047a12.214055 12.214055 0 0 1 14.194713 2.640877l347.935526 425.841392 37.962605 52.487428 8.25274 11.553836A70.643456 70.643456 0 0 1 1056.350741 841.779497a70.313346 70.313346 0 0 1-84.508059-10.893617l-6.602192-5.611863a71.633785 71.633785 0 0 1-29.379755 71.633784 72.624113 72.624113 0 0 1-91.440361-9.573178l-5.611863-5.611863a70.313346 70.313346 0 0 1-28.389427 71.633784 71.963894 71.963894 0 0 1-90.780141-9.573178l-5.941973-5.611864a69.653127 69.653127 0 0 1-108.606061 71.303675l6.932302-11.883946A128.412637 128.412637 0 0 0 594.197292 845.080593a122.800774 122.800774 0 0 0-68.662798-35.321728 934.540297 934.540297 0 0 1-154.821406-141.286911A126.431979 126.431979 0 0 0 330.109607 606.411348a121.480335 121.480335 0 0 0-89.789813-28.389427 124.451322 124.451322 0 0 0-83.187621 44.564797l-49.516441 59.08962H38.952934A45.225016 45.225016 0 0 1 0 652.626692V203.017408a33.010961 33.010961 0 0 1 33.010961-30.039974h226.12508a14.194713 14.194713 0 0 1 8.25274 0 14.524823 14.524823 0 0 1 7.592521 9.573179 14.854932 14.854932 0 0 1 0 12.214055 120.820116 120.820116 0 0 0-11.553836 96.061896 112.567376 112.567376 0 0 0 68.662798 66.021921z m-127.422308 307.992263a60.079948 60.079948 0 0 1 77.575757-16.17537h2.310767a54.137975 54.137975 0 0 1 27.068988 33.01096A55.788524 55.788524 0 0 1 303.370729 726.241135s0 5.281754 5.611863 5.281753a59.749839 59.749839 0 0 1 83.187621 75.92521s-2.640877 6.602192 6.602192 6.602192a72.624113 72.624113 0 0 1 24.098001-4.291425 62.390716 62.390716 0 0 1 56.448743 63.711154h2.640877a60.079948 60.079948 0 0 1 79.886525 28.719536 61.730496 61.730496 0 0 1-3.631206 58.429401l-8.25274 14.194713a46.875564 46.875564 0 0 0-5.611864 6.932301 60.079948 60.079948 0 0 1-39.943262 23.107673 59.08962 59.08962 0 0 1-44.564797-12.214056h-2.640877a62.060606 62.060606 0 0 1-23.107672-35.321728H429.142489a55.788524 55.788524 0 0 1-66.021922-5.281753v-3.631206a60.740168 60.740168 0 0 1-22.777562-53.477756 3.961315 3.961315 0 0 0 0-5.281754 3.961315 3.961315 0 0 0-5.281754 0 61.730496 61.730496 0 0 1-66.021922-6.602192l-5.611863-3.961315a60.079948 60.079948 0 0 1-21.787234-57.769182v-2.970986h-5.611863a61.070277 61.070277 0 0 1-66.021922-5.611863l-4.951644-3.301096A59.419729 59.419729 0 0 1 154.491296 726.241135z" p-id="9686"></path></svg>